<svg width="22" height="38" viewBox="0 0 22 38" fill="none" xmlns="http://www.w3.org/2000/svg">
<path d="M1.2575 1.8075C0.956216 2.10817 0.717186 2.46531 0.554096 2.85847C0.391006 3.25164 0.307058 3.67311 0.307058 4.09875C0.307058 4.5244 0.391006 4.94587 0.554096 5.33903C0.717186 5.73219 0.956216 6.08933 1.2575 6.39L13.8675 19L1.2575 31.61C0.649825 32.2177 0.308434 33.0419 0.308434 33.9012C0.308434 34.7606 0.649825 35.5848 1.2575 36.1925C1.86518 36.8002 2.68937 37.1416 3.54875 37.1416C4.40814 37.1416 5.23232 36.8002 5.84 36.1925L20.7575 21.275C21.0588 20.9743 21.2978 20.6172 21.4609 20.224C21.624 19.8309 21.7079 19.4094 21.7079 18.9838C21.7079 18.5581 21.624 18.1366 21.4609 17.7435C21.2978 17.3503 21.0588 16.9932 20.7575 16.6925L5.84 1.775C4.605 0.540002 2.525 0.540003 1.2575 1.8075Z" fill="white"/>
</svg>
